<?xml version="1.0" encoding="utf-8"?>
<!-- Generator: Adobe Illustrator 19.0.1, SVG Export Plug-In . SVG Version: 6.00 Build 0)  -->
<svg version="1.1" id="Layer_1" xmlns="http://www.w3.org/2000/svg" xmlns:xlink="http://www.w3.org/1999/xlink" x="0px" y="0px"
	 viewBox="0 -1150 1920 2400" style="enable-background:new 0 -1150 1920 2400;" xml:space="preserve">
<style type="text/css">
	.st0{fill:#4CB6AC;}
	.st1{fill:#04897B;}
	.st2{fill:#556F7A;}
	.st3{fill:#80CBC4;}
	.st4{fill:#B3E0DB;}
	.st5{fill:#25A69A;}
	.st6{fill:none;}
	.st7{fill:#B7DED6;}
	.st8{fill:#273238;}
	.st9{fill:none;stroke:#4CB6AC;stroke-width:8;stroke-miterlimit:10;}
	.st10{fill:#37474F;}
	.st11{opacity:0.8;fill:#04897B;enable-background:new    ;}
	.st12{fill:#B0BEC5;}
	.st13{fill:#78909C;}
	.st14{fill:#FAA629;}
	.st15{fill:none;stroke:#444444;stroke-width:1.8183;stroke-miterlimit:10;}
	.st16{fill:none;stroke:#FFCC2A;stroke-width:1.8183;stroke-miterlimit:10;}
	.st17{fill:#FFD54E;}
	.st18{fill:none;stroke:#FFCC2A;stroke-width:3.0481;stroke-miterlimit:10;}
	.st19{fill:#FFCC2A;}
	.st20{fill:#444444;}
	.st21{fill:#626363;}
	.st22{fill:#E0E1E0;}
	.st23{fill:none;stroke:#444444;stroke-width:1.2192;stroke-miterlimit:10;}
	.st24{fill:#EA682E;}
	.st25{fill:#292921;}
	.st26{fill:#E6B660;}
	.st27{fill:#B0772A;}
	.st28{fill:#465C66;}
	.st29{fill:#FBB317;}
	.st30{fill:#384850;}
	.st31{fill:#F2824D;}
	.st32{fill:#F58A68;}
	.st33{fill:#FFFFFF;}
	.st34{fill:#EF4538;}
	.st35{fill:#FCB316;}
	.st36{fill:#565457;}
	.st37{fill:#494B3B;}
	.st38{fill:#655638;}
	.st39{fill:#3F2723;}
	.st40{fill:#7A5823;}
	.st41{fill:#5E4238;}
	.st42{fill:#C2842B;}
	.st43{fill:#912C8D;}
	.st44{fill:#614D1F;}
	.st45{fill:#A77A2B;}
	.st46{fill:#9B722A;}
	.st47{fill:#735421;}
	.st48{fill:#B99456;}
	.st49{fill:#5D502F;}
	.st50{fill:#EB6930;}
	.st51{fill:#F4844D;}
	.st52{fill:#273238;stroke:#B0BEC5;stroke-width:0.7891;stroke-miterlimit:10;}
</style>
<g>
	<g>
		<rect x="772.9" y="872.7" class="st0" width="362.3" height="376.6"/>
		<g>
			<rect x="802.2" y="916.6" class="st1" width="25.4" height="57.5"/>
			<rect x="857.9" y="916.6" class="st1" width="25.4" height="57.5"/>
			<rect x="913.5" y="916.6" class="st1" width="25.4" height="57.5"/>
			<rect x="969.2" y="916.6" class="st1" width="25.4" height="57.5"/>
			<rect x="1024.9" y="916.6" class="st1" width="25.4" height="57.5"/>
			<rect x="1080.6" y="916.6" class="st1" width="25.4" height="57.5"/>
		</g>
		<g>
			<rect x="802.2" y="997" class="st1" width="25.4" height="57.5"/>
			<rect x="857.9" y="997" class="st1" width="25.4" height="57.5"/>
			<rect x="913.5" y="997" class="st1" width="25.4" height="57.5"/>
			<rect x="969.2" y="997" class="st1" width="25.4" height="57.5"/>
			<rect x="1024.9" y="997" class="st1" width="25.4" height="57.5"/>
			<rect x="1080.6" y="997" class="st1" width="25.4" height="57.5"/>
		</g>
		<g>
			<rect x="802.2" y="1077.3" class="st1" width="25.4" height="57.5"/>
			<rect x="857.9" y="1077.3" class="st1" width="25.4" height="57.5"/>
			<rect x="913.5" y="1077.3" class="st1" width="25.4" height="57.5"/>
			<rect x="969.2" y="1077.3" class="st1" width="25.4" height="57.5"/>
			<rect x="1024.9" y="1077.3" class="st1" width="25.4" height="57.5"/>
			<rect x="1080.6" y="1077.3" class="st1" width="25.4" height="57.5"/>
		</g>
		<g>
			<rect x="802.2" y="1157.7" class="st1" width="25.4" height="57.5"/>
			<rect x="857.9" y="1157.7" class="st1" width="25.4" height="57.5"/>
			<rect x="913.5" y="1157.7" class="st1" width="25.4" height="57.5"/>
			<rect x="969.2" y="1157.7" class="st1" width="25.4" height="57.5"/>
			<rect x="1024.9" y="1157.7" class="st1" width="25.4" height="57.5"/>
			<rect x="1080.6" y="1157.7" class="st1" width="25.4" height="57.5"/>
		</g>
	</g>
	<g>
		<rect x="499.8" y="872.7" class="st0" width="362.3" height="376.6"/>
		<g>
			<rect x="529" y="916.6" class="st1" width="25.4" height="57.5"/>
			<rect x="584.7" y="916.6" class="st1" width="25.4" height="57.5"/>
			<rect x="640.4" y="916.6" class="st1" width="25.4" height="57.5"/>
			<rect x="696.1" y="916.6" class="st1" width="25.4" height="57.5"/>
			<rect x="751.8" y="916.6" class="st1" width="25.4" height="57.5"/>
			<rect x="807.5" y="916.6" class="st1" width="25.4" height="57.5"/>
		</g>
		<g>
			<rect x="529" y="997" class="st1" width="25.4" height="57.5"/>
			<rect x="584.7" y="997" class="st1" width="25.4" height="57.5"/>
			<rect x="640.4" y="997" class="st1" width="25.4" height="57.5"/>
			<rect x="696.1" y="997" class="st1" width="25.4" height="57.5"/>
			<rect x="751.8" y="997" class="st1" width="25.4" height="57.5"/>
			<rect x="807.5" y="997" class="st1" width="25.4" height="57.5"/>
		</g>
		<g>
			<rect x="529" y="1077.3" class="st1" width="25.4" height="57.5"/>
			<rect x="584.7" y="1077.3" class="st1" width="25.4" height="57.5"/>
			<rect x="640.4" y="1077.3" class="st1" width="25.4" height="57.5"/>
			<rect x="696.1" y="1077.3" class="st1" width="25.4" height="57.5"/>
			<rect x="751.8" y="1077.3" class="st1" width="25.4" height="57.5"/>
			<rect x="807.5" y="1077.3" class="st1" width="25.4" height="57.5"/>
		</g>
		<g>
			<rect x="529" y="1157.7" class="st1" width="25.4" height="57.5"/>
			<rect x="584.7" y="1157.7" class="st1" width="25.4" height="57.5"/>
			<rect x="640.4" y="1157.7" class="st1" width="25.4" height="57.5"/>
			<rect x="696.1" y="1157.7" class="st1" width="25.4" height="57.5"/>
			<rect x="751.8" y="1157.7" class="st1" width="25.4" height="57.5"/>
			<rect x="807.5" y="1157.7" class="st1" width="25.4" height="57.5"/>
		</g>
	</g>
	<g>
		<g>
			<polygon class="st2" points="373.3,1193.3 360.4,1180.4 349.8,1180.4 349.8,1205.4 373.3,1205.4 			"/>
			<rect x="335.9" y="1180.4" class="st2" width="9.8" height="25"/>
		</g>
	</g>
	<g>
		<rect x="1572.3" y="973.7" class="st0" width="347.7" height="275.7"/>
	</g>
	<rect x="1078" y="982.1" class="st1" width="196.7" height="267.2"/>
	<g>
		<path class="st3" d="M1184.6-63.1l-6.5-128.4c0,0-5.8,114.8-6.5,128.4L1065.3,51.4v77.2h225.6V51.4L1184.6-63.1z"/>
		<polygon class="st0" points="1155.8,9.3 1178.1,-63.3 1200.5,9.3 		"/>
		<rect x="1065.3" y="558.6" class="st3" width="225.6" height="690.7"/>
		<polygon class="st0" points="1078,723.1 1078,282.7 1155.8,198.9 1155.8,9.3 1065.3,106.7 1065.3,904 1078,904 		"/>
		<polygon class="st0" points="1200.5,9.3 1200.5,198.9 1278.2,282.7 1278.2,723.1 1278.2,904 1290.9,904 1290.9,106.7 		"/>
		<polygon class="st3" points="1078,282.7 1078,723.1 1090.6,723.1 1090.6,445.1 1155.8,374.9 1155.8,198.9 		"/>
		<polygon class="st3" points="1265.6,445.1 1265.6,723.1 1278.2,723.1 1278.2,282.7 1200.5,198.9 1200.5,374.9 		"/>
		<rect x="1065.3" y="904" class="st4" width="12.7" height="345.3"/>
		<rect x="1278.2" y="904" class="st4" width="12.7" height="345.3"/>
		<polygon class="st4" points="1278.2,723.1 1265.6,723.1 1265.6,445.1 1200.5,374.9 1200.5,1249.3 1265.6,1249.3 1278.2,1249.3 
			1278.2,904 		"/>
		<polygon class="st4" points="1090.6,445.1 1090.6,723.1 1078,723.1 1078,904 1078,1249.3 1090.6,1249.3 1155.8,1249.3 
			1155.8,374.9 		"/>
		<polygon class="st5" points="1178.1,174.9 1200.5,198.9 1200.5,9.3 1178.1,-14.7 1155.8,9.3 1155.8,198.9 		"/>
		<polygon class="st0" points="1155.8,198.9 1155.8,374.9 1178.1,350.8 1200.5,374.9 1200.5,198.9 1178.1,174.9 		"/>
		<polygon class="st3" points="1178.1,350.8 1155.8,374.9 1155.8,1249.3 1200.5,1249.3 1200.5,374.9 		"/>
		<line class="st6" x1="1178.1" y1="-63.3" x2="1178.1" y2="-191.5"/>
		<polygon class="st0" points="1184.6,-63.1 1290.9,72 1290.9,51.3 		"/>
		<polygon class="st0" points="1065.3,72 1171.7,-63.1 1065.3,51.3 		"/>
	</g>
	<g>
		<g>
			<rect x="1412.5" y="-728.7" class="st4" width="106" height="18.8"/>
			<rect x="1399" y="-919.3" class="st4" width="23.9" height="209.3"/>
			<rect x="1506.6" y="-884.6" class="st4" width="23.9" height="174.6"/>
			<rect x="1402.9" y="-964.7" class="st4" width="16" height="45.4"/>
			<rect x="1510.5" y="-964.7" class="st4" width="16" height="80.1"/>
			<rect x="1405.9" y="-1040.6" class="st4" width="10" height="75.9"/>
			<rect x="1513.6" y="-1059.5" class="st4" width="10" height="94.8"/>
			<rect x="1409.4" y="-1043.6" class="st4" width="3" height="3"/>
			<rect x="1517.1" y="-1062.5" class="st4" width="3" height="3"/>
			<rect x="1543.2" y="-814.6" class="st4" width="10.3" height="104.6"/>
			<rect x="1543.2" y="-858.6" class="st4" width="5.2" height="44.1"/>
			<rect x="1378.6" y="-814.6" class="st4" width="10.3" height="104.6"/>
			<rect x="1378.6" y="-858.6" class="st4" width="5.2" height="44.1"/>
			<rect x="1382.6" y="-791.7" class="st4" width="16.9" height="5.3"/>
			<rect x="1527.3" y="-791.7" class="st4" width="16.9" height="5.3"/>
		</g>
		<rect x="1363.2" y="-711.6" class="st0" width="205.6" height="1961"/>
		<rect x="1466.1" y="-363.7" class="st3" width="102.8" height="1613.1"/>
		<rect x="1569" y="-363.7" class="st4" width="102.8" height="1613.1"/>
		<rect x="1466.1" y="881.1" class="st1" width="205.6" height="36.7"/>
		<rect x="1363.2" y="442.9" class="st4" width="102.8" height="806.5"/>
		<rect x="1671.8" y="694.6" class="st7" width="102.8" height="554.8"/>
		<rect x="1466.1" y="-363.7" class="st1" width="102.8" height="18.3"/>
		<rect x="1363.2" y="442.9" class="st8" width="308.5" height="18.3"/>
	</g>
	<polygon class="st1" points="423.8,1249.2 0,1249.2 0,631.4 423.8,708.9 	"/>
	<g>
		<rect x="252.8" y="-507.5" class="st3" width="355.8" height="1756.9"/>
		<g>
			<line class="st9" x1="287.2" y1="-476.7" x2="287.2" y2="1218.5"/>
			<line class="st9" x1="311.2" y1="-476.7" x2="311.2" y2="1218.5"/>
			<line class="st9" x1="335" y1="-476.7" x2="335" y2="1218.5"/>
			<line class="st9" x1="359" y1="-476.7" x2="359" y2="1218.5"/>
			<line class="st9" x1="382.8" y1="-476.7" x2="382.8" y2="1218.5"/>
			<line class="st9" x1="406.8" y1="-476.7" x2="406.8" y2="1218.5"/>
			<line class="st9" x1="430.7" y1="-476.7" x2="430.7" y2="1218.5"/>
			<line class="st9" x1="454.6" y1="-476.7" x2="454.6" y2="1218.5"/>
			<line class="st9" x1="478.5" y1="-476.7" x2="478.5" y2="1218.5"/>
			<line class="st9" x1="502.4" y1="-476.7" x2="502.4" y2="1218.5"/>
			<line class="st9" x1="526.3" y1="-476.7" x2="526.3" y2="1218.5"/>
			<line class="st9" x1="550.2" y1="-476.7" x2="550.2" y2="1218.5"/>
			<line class="st9" x1="574.2" y1="-476.7" x2="574.2" y2="1218.5"/>
		</g>
	</g>
	<g>
		<polygon class="st3" points="681,489.4 681,1249.4 822.6,1249.4 822.6,631 		"/>
		<rect x="681" y="637.8" class="st10" width="137.5" height="6.8"/>
		<rect x="681" y="651.3" class="st10" width="137.5" height="6.8"/>
		<rect x="681" y="664.9" class="st10" width="137.5" height="6.8"/>
		<rect x="681" y="678.4" class="st10" width="137.5" height="6.8"/>
		<rect x="681" y="691.9" class="st10" width="137.5" height="6.8"/>
		<rect x="681" y="705.4" class="st10" width="137.5" height="6.8"/>
		<rect x="681" y="719" class="st10" width="137.5" height="6.8"/>
		<rect x="681" y="732.5" class="st10" width="137.5" height="6.8"/>
		<rect x="681" y="746" class="st10" width="137.5" height="6.8"/>
		<rect x="681" y="759.5" class="st10" width="137.5" height="6.8"/>
		<rect x="681" y="773.1" class="st10" width="137.5" height="6.8"/>
		<rect x="681" y="786.6" class="st10" width="137.5" height="6.8"/>
		<rect x="681" y="800.1" class="st10" width="137.5" height="6.8"/>
		<rect x="681" y="813.7" class="st10" width="137.5" height="6.8"/>
		<rect x="681" y="827.3" class="st10" width="137.5" height="6.8"/>
		<rect x="681" y="840.8" class="st10" width="137.5" height="6.8"/>
		<rect x="681" y="854.3" class="st10" width="137.5" height="6.8"/>
		<rect x="681" y="867.8" class="st10" width="137.5" height="6.8"/>
		<rect x="681" y="881.4" class="st10" width="137.5" height="6.8"/>
		<rect x="681" y="894.9" class="st10" width="137.5" height="6.8"/>
		<rect x="681" y="908.4" class="st10" width="137.5" height="6.8"/>
		<rect x="681" y="921.9" class="st10" width="137.5" height="6.8"/>
		<rect x="681" y="935.5" class="st10" width="137.5" height="6.8"/>
		<rect x="681" y="949" class="st10" width="137.5" height="6.8"/>
		<rect x="681" y="962.5" class="st10" width="137.5" height="6.8"/>
		<rect x="681" y="976" class="st10" width="137.5" height="6.8"/>
		<rect x="681" y="989.6" class="st10" width="137.5" height="6.8"/>
		<rect x="681" y="1003.1" class="st10" width="137.5" height="6.8"/>
		<rect x="681" y="1016.6" class="st10" width="137.5" height="6.8"/>
		<rect x="681" y="1030.2" class="st10" width="137.5" height="6.8"/>
		<rect x="681" y="1043.7" class="st10" width="137.5" height="6.8"/>
		<rect x="681" y="1057.2" class="st10" width="137.5" height="6.8"/>
		<rect x="681" y="1070.7" class="st10" width="137.5" height="6.8"/>
		<rect x="681" y="1084.3" class="st10" width="137.5" height="6.8"/>
		<rect x="681" y="1097.8" class="st10" width="137.5" height="6.8"/>
		<rect x="681" y="1111.3" class="st10" width="137.5" height="6.8"/>
		<rect x="681" y="1124.8" class="st10" width="137.5" height="6.8"/>
		<rect x="681" y="1138.4" class="st10" width="137.5" height="6.8"/>
		<rect x="681" y="1151.9" class="st10" width="137.5" height="6.8"/>
		<rect x="681" y="1165.4" class="st10" width="137.5" height="6.8"/>
		<rect x="681" y="1179" class="st10" width="137.5" height="6.8"/>
		<rect x="681" y="1192.5" class="st10" width="137.5" height="6.8"/>
		<rect x="681" y="1206" class="st10" width="137.5" height="6.8"/>
		<rect x="681" y="1219.5" class="st10" width="137.5" height="6.8"/>
		<rect x="681" y="1233.1" class="st10" width="137.5" height="6.8"/>
		<polygon class="st10" points="681,624.7 681,631.4 813,631.4 806.3,624.7 		"/>
		<polygon class="st10" points="681,502.8 681,509.7 691.2,509.7 684.5,502.8 		"/>
		<polygon class="st10" points="681,516.4 681,523.2 704.9,523.2 698.1,516.4 		"/>
		<polygon class="st10" points="681,530 681,536.7 718.4,536.7 711.7,530 		"/>
		<polygon class="st10" points="681,543.5 681,550.3 731.8,550.3 725,543.5 		"/>
		<polygon class="st10" points="681,557 681,563.8 745.5,563.8 738.7,557 		"/>
		<polygon class="st10" points="681,570.5 681,577.3 759,577.3 752.2,570.5 		"/>
		<polygon class="st10" points="681,584.1 681,590.8 772.3,590.8 765.5,584.1 		"/>
		<polygon class="st10" points="681,597.6 681,604.4 786,604.4 779.2,597.6 		"/>
		<polygon class="st10" points="681,611.1 681,617.9 799.4,617.9 792.7,611.1 		"/>
		<polygon class="st10" points="851.3,347.7 851.3,422 822.6,422 822.6,347.7 681,489.4 822.6,631 822.6,617.9 851.3,617.9 
			864.5,617.9 993,489.4 		"/>
		<polygon class="st0" points="864.5,617.9 851.3,617.9 822.6,617.9 822.6,631 822.6,1249.4 867.6,1249.4 993,1249.4 993,489.4 		
			"/>
		<polygon class="st10" points="993,502.5 993,509.3 982.7,509.3 989.4,502.5 		"/>
		<polygon class="st10" points="993,516.1 993,522.8 969,522.8 975.7,516.1 		"/>
		<polygon class="st10" points="993,529.6 993,536.3 955.5,536.3 962.3,529.6 		"/>
		<polygon class="st10" points="993,543.1 993,549.9 942.2,549.9 948.9,543.1 		"/>
		<polygon class="st10" points="993,556.6 993,563.4 928.5,563.4 935.2,556.6 		"/>
		<polygon class="st10" points="993,570.2 993,576.9 914.9,576.9 921.7,570.2 		"/>
		<polygon class="st10" points="993,583.7 993,590.5 901.6,590.5 908.4,583.7 		"/>
		<polygon class="st10" points="993,597.2 993,604 888,604 894.7,597.2 		"/>
		<polygon class="st10" points="993,610.7 993,617.5 874.4,617.5 881.2,610.7 		"/>
		<rect x="827.1" y="624.3" class="st10" width="165.8" height="6.8"/>
		<rect x="827.1" y="637.8" class="st10" width="165.8" height="6.8"/>
		<rect x="827.1" y="651.3" class="st10" width="165.8" height="6.8"/>
		<rect x="827.1" y="664.9" class="st10" width="165.8" height="6.8"/>
		<rect x="827.1" y="678.4" class="st10" width="165.8" height="6.8"/>
		<rect x="827.1" y="691.9" class="st10" width="165.8" height="6.8"/>
		<rect x="827.1" y="705.4" class="st10" width="165.8" height="6.8"/>
		<rect x="827.1" y="719" class="st10" width="165.8" height="6.8"/>
		<rect x="827.1" y="732.5" class="st10" width="165.8" height="6.8"/>
		<rect x="827.1" y="746" class="st10" width="165.8" height="6.8"/>
		<rect x="827.1" y="759.5" class="st10" width="165.8" height="6.8"/>
		<rect x="827.1" y="773.1" class="st10" width="165.8" height="6.8"/>
		<rect x="827.1" y="786.6" class="st10" width="165.8" height="6.8"/>
		<rect x="827.1" y="800.1" class="st10" width="165.8" height="6.8"/>
		<rect x="827.1" y="813.7" class="st10" width="165.8" height="6.8"/>
		<rect x="827.1" y="827.3" class="st10" width="165.8" height="6.8"/>
		<rect x="827.1" y="840.8" class="st10" width="165.8" height="6.8"/>
		<rect x="827.1" y="854.3" class="st10" width="165.8" height="6.8"/>
		<rect x="827.1" y="867.8" class="st10" width="165.8" height="6.8"/>
		<rect x="827.1" y="881.4" class="st10" width="165.8" height="6.8"/>
		<rect x="827.1" y="894.9" class="st10" width="165.8" height="6.8"/>
		<rect x="827.1" y="908.4" class="st10" width="165.8" height="6.8"/>
		<rect x="827.1" y="921.9" class="st10" width="165.8" height="6.8"/>
		<rect x="827.1" y="935.5" class="st10" width="165.8" height="6.8"/>
		<rect x="827.1" y="949" class="st10" width="165.8" height="6.8"/>
		<rect x="827.1" y="962.5" class="st10" width="165.8" height="6.8"/>
		<rect x="827.1" y="976" class="st10" width="165.8" height="6.8"/>
		<rect x="827.1" y="989.6" class="st10" width="165.8" height="6.8"/>
		<rect x="827.1" y="1003.1" class="st10" width="165.8" height="6.8"/>
		<rect x="827.1" y="1016.6" class="st10" width="165.8" height="6.8"/>
		<rect x="827.1" y="1030.2" class="st10" width="165.8" height="6.8"/>
		<rect x="827.1" y="1043.7" class="st10" width="165.8" height="6.8"/>
		<rect x="827.1" y="1057.2" class="st10" width="165.8" height="6.8"/>
		<rect x="827.1" y="1070.7" class="st10" width="165.8" height="6.8"/>
		<rect x="827.1" y="1084.3" class="st10" width="165.8" height="6.8"/>
		<rect x="827.1" y="1097.8" class="st10" width="165.8" height="6.8"/>
		<rect x="827.1" y="1111.3" class="st10" width="165.8" height="6.8"/>
		<rect x="827.1" y="1124.8" class="st10" width="165.8" height="6.8"/>
		<rect x="827.1" y="1138.4" class="st10" width="165.8" height="6.8"/>
		<rect x="827.1" y="1151.9" class="st10" width="165.8" height="6.8"/>
		<rect x="827.1" y="1165.4" class="st10" width="165.8" height="6.8"/>
		<rect x="827.1" y="1179" class="st10" width="165.8" height="6.8"/>
		<rect x="827.1" y="1192.5" class="st10" width="165.8" height="6.8"/>
		<rect x="827.1" y="1206" class="st10" width="165.8" height="6.8"/>
		<rect x="827.1" y="1219.5" class="st10" width="165.8" height="6.8"/>
		<rect x="827.1" y="1233.1" class="st10" width="165.8" height="6.8"/>
	</g>
	<g>
		<rect x="0.1" y="1160.1" class="st11" width="482.5" height="89.9"/>
		<rect x="119.8" y="1160.1" class="st12" width="3.5" height="89.9"/>
		<rect x="0.1" y="1160.1" class="st12" width="3.5" height="89.9"/>
		<rect x="0.1" y="1160.1" class="st12" width="123.2" height="3.5"/>
		<rect x="0.1" y="1203.3" class="st12" width="123.2" height="3.5"/>
		<rect x="239.6" y="1160.1" class="st12" width="3.5" height="89.9"/>
		<rect x="119.8" y="1160.1" class="st12" width="123.2" height="3.5"/>
		<rect x="119.8" y="1203.3" class="st12" width="123.2" height="3.5"/>
		<rect x="359.3" y="1160.1" class="st12" width="3.5" height="89.9"/>
		<rect x="239.6" y="1160.1" class="st12" width="123.2" height="3.5"/>
		<rect x="239.6" y="1203.3" class="st12" width="123.2" height="3.5"/>
		<rect x="479.1" y="1160.1" class="st12" width="3.5" height="89.9"/>
		<rect x="359.3" y="1160.1" class="st12" width="123.2" height="3.5"/>
		<rect x="359.3" y="1203.3" class="st12" width="123.2" height="3.5"/>
	</g>
	<g>
		<rect x="479.3" y="1160.1" class="st11" width="482.5" height="89.9"/>
		<rect x="599.1" y="1160.1" class="st12" width="3.5" height="89.9"/>
		<rect x="479.3" y="1160.1" class="st12" width="3.5" height="89.9"/>
		<rect x="479.3" y="1160.1" class="st12" width="123.2" height="3.5"/>
		<rect x="479.3" y="1203.3" class="st12" width="123.2" height="3.5"/>
		<rect x="718.8" y="1160.1" class="st12" width="3.5" height="89.9"/>
		<rect x="599.1" y="1160.1" class="st12" width="123.2" height="3.5"/>
		<rect x="599.1" y="1203.3" class="st12" width="123.2" height="3.5"/>
		<rect x="838.6" y="1160.1" class="st12" width="3.5" height="89.9"/>
		<rect x="718.8" y="1160.1" class="st12" width="123.2" height="3.5"/>
		<rect x="718.8" y="1203.3" class="st12" width="123.2" height="3.5"/>
		<rect x="958.4" y="1160.1" class="st12" width="3.5" height="89.9"/>
		<rect x="838.6" y="1160.1" class="st12" width="123.2" height="3.5"/>
		<rect x="838.6" y="1203.3" class="st12" width="123.2" height="3.5"/>
	</g>
	<g>
		<rect x="958.6" y="1160.1" class="st11" width="482.5" height="89.9"/>
		<rect x="1078.4" y="1160.1" class="st12" width="3.5" height="89.9"/>
		<rect x="958.6" y="1160.1" class="st12" width="3.5" height="89.9"/>
		<rect x="958.6" y="1160.1" class="st12" width="123.2" height="3.5"/>
		<rect x="958.6" y="1203.3" class="st12" width="123.2" height="3.5"/>
		<rect x="1198.1" y="1160.1" class="st12" width="3.5" height="89.9"/>
		<rect x="1078.4" y="1160.1" class="st12" width="123.2" height="3.5"/>
		<rect x="1078.4" y="1203.3" class="st12" width="123.2" height="3.5"/>
		<rect x="1317.9" y="1160.1" class="st12" width="3.5" height="89.9"/>
		<rect x="1198.1" y="1160.1" class="st12" width="123.2" height="3.5"/>
		<rect x="1198.1" y="1203.3" class="st12" width="123.2" height="3.5"/>
		<rect x="1437.6" y="1160.1" class="st12" width="3.5" height="89.9"/>
		<rect x="1317.9" y="1160.1" class="st12" width="123.2" height="3.5"/>
		<rect x="1317.9" y="1203.3" class="st12" width="123.2" height="3.5"/>
	</g>
	<g>
		<rect x="1437.5" y="1160.1" class="st11" width="482.5" height="89.9"/>
		<rect x="1557.2" y="1160.1" class="st12" width="3.5" height="89.9"/>
		<rect x="1437.5" y="1160.1" class="st12" width="3.5" height="89.9"/>
		<rect x="1437.5" y="1160.1" class="st12" width="123.2" height="3.5"/>
		<rect x="1437.5" y="1203.3" class="st12" width="123.2" height="3.5"/>
		<rect x="1677" y="1160.1" class="st12" width="3.5" height="89.9"/>
		<rect x="1557.2" y="1160.1" class="st12" width="123.2" height="3.5"/>
		<rect x="1557.2" y="1203.3" class="st12" width="123.2" height="3.5"/>
		<rect x="1796.8" y="1160.1" class="st12" width="3.5" height="89.9"/>
		<rect x="1677" y="1160.1" class="st12" width="123.2" height="3.5"/>
		<rect x="1677" y="1203.3" class="st12" width="123.2" height="3.5"/>
		<rect x="1916.5" y="1160.1" class="st12" width="3.5" height="89.9"/>
		<rect x="1796.8" y="1160.1" class="st12" width="123.2" height="3.5"/>
		<rect x="1796.8" y="1203.3" class="st12" width="123.2" height="3.5"/>
	</g>
	<g>
		<g>
			<g>
				<rect x="1802.6" y="847.9" class="st13" width="11.4" height="401.3"/>
			</g>
			<g>
				<rect x="1648.2" y="847.9" class="st13" width="11.4" height="401.3"/>
			</g>
			<g>
				<rect x="1493.7" y="847.9" class="st13" width="11.4" height="401.3"/>
			</g>
			<g>
				<rect x="1339.3" y="847.9" class="st13" width="11.4" height="401.3"/>
			</g>
		</g>
		<g>
			<rect x="1184.8" y="952.2" class="st13" width="11.4" height="297"/>
		</g>
		<g>
			<rect x="1030.4" y="952.2" class="st13" width="11.4" height="297"/>
		</g>
		<g>
			<rect x="1339.8" y="847.9" class="st13" width="468.5" height="10.4"/>
		</g>
		<g>
			<rect x="1030.4" y="945" class="st13" width="783.6" height="11.4"/>
		</g>
		<g>
			<rect x="1036.1" y="1042.6" class="st13" width="777.9" height="11.4"/>
		</g>
		<g>
			<rect x="1036.1" y="1140.3" class="st13" width="777.9" height="11.4"/>
		</g>
		<g>
			<g>
				<rect x="1320.6" y="912" class="st14" width="506.9" height="5.2"/>
			</g>
			<g>
				<rect x="1320.6" y="897.6" class="st14" width="506.9" height="5.2"/>
			</g>
			<g>
				<rect x="1320.6" y="926.9" class="st14" width="506.9" height="5.2"/>
			</g>
			<g>
				<rect x="1320.6" y="941.9" class="st14" width="506.9" height="5.2"/>
			</g>
			<rect x="1823.7" y="897.6" class="st13" width="3.8" height="49.5"/>
			<rect x="1777.9" y="897.6" class="st13" width="3.8" height="49.5"/>
			<rect x="1732.2" y="897.6" class="st13" width="3.8" height="49.5"/>
			<rect x="1686.5" y="897.6" class="st13" width="3.8" height="49.5"/>
			<rect x="1640.7" y="897.6" class="st13" width="3.8" height="49.5"/>
			<rect x="1549.3" y="897.6" class="st13" width="3.8" height="49.5"/>
			<rect x="1457.8" y="897.6" class="st13" width="3.8" height="49.5"/>
			<rect x="1412.1" y="897.6" class="st13" width="3.8" height="49.5"/>
			<rect x="1595" y="897.6" class="st13" width="3.8" height="49.5"/>
			<rect x="1366.3" y="897.6" class="st13" width="3.8" height="49.5"/>
			<rect x="1503.5" y="897.6" class="st13" width="3.8" height="49.5"/>
			<rect x="1320.6" y="897.6" class="st13" width="3.8" height="49.5"/>
		</g>
		<g>
			<rect x="1320.6" y="1007.5" class="st14" width="506.9" height="5.2"/>
		</g>
		<g>
			<rect x="1320.6" y="993.1" class="st14" width="506.9" height="5.2"/>
		</g>
		<g>
			<rect x="1320.6" y="1022.5" class="st14" width="506.9" height="5.2"/>
		</g>
		<g>
			<rect x="1320.6" y="1037.5" class="st14" width="506.9" height="5.2"/>
		</g>
		<rect x="1823.7" y="993.1" class="st13" width="3.8" height="49.5"/>
		<rect x="1777.9" y="993.1" class="st13" width="3.8" height="49.5"/>
		<rect x="1732.2" y="993.1" class="st13" width="3.8" height="49.5"/>
		<rect x="1686.5" y="993.1" class="st13" width="3.8" height="49.5"/>
		<rect x="1640.7" y="993.1" class="st13" width="3.8" height="49.5"/>
		<rect x="1549.3" y="993.1" class="st13" width="3.8" height="49.5"/>
		<rect x="1457.8" y="993.1" class="st13" width="3.8" height="49.5"/>
		<rect x="1412.1" y="993.1" class="st13" width="3.8" height="49.5"/>
		<rect x="1595" y="993.1" class="st13" width="3.8" height="49.5"/>
		<rect x="1366.3" y="993.1" class="st13" width="3.8" height="49.5"/>
		<rect x="1503.5" y="993.1" class="st13" width="3.8" height="49.5"/>
		<rect x="1320.6" y="993.1" class="st13" width="3.8" height="49.5"/>
		<g>
			<g>
				<rect x="1000.5" y="1007.5" class="st14" width="506.9" height="5.2"/>
			</g>
			<g>
				<rect x="1000.5" y="993.1" class="st14" width="506.9" height="5.2"/>
			</g>
			<g>
				<rect x="1000.5" y="1022.5" class="st14" width="506.9" height="5.2"/>
			</g>
			<g>
				<rect x="1000.5" y="1037.5" class="st14" width="506.9" height="5.2"/>
			</g>
			<rect x="1503.5" y="993.1" class="st13" width="3.8" height="49.5"/>
			<rect x="1457.8" y="993.1" class="st13" width="3.8" height="49.5"/>
			<rect x="1412.1" y="993.1" class="st13" width="3.8" height="49.5"/>
			<rect x="1366.3" y="993.1" class="st13" width="3.8" height="49.5"/>
			<rect x="1320.6" y="993.1" class="st13" width="3.8" height="49.5"/>
			<rect x="1229.1" y="993.1" class="st13" width="3.8" height="49.5"/>
			<rect x="1137.7" y="993.1" class="st13" width="3.8" height="49.5"/>
			<rect x="1091.9" y="993.1" class="st13" width="3.8" height="49.5"/>
			<rect x="1274.9" y="993.1" class="st13" width="3.8" height="49.5"/>
			<rect x="1046.2" y="993.1" class="st13" width="3.8" height="49.5"/>
			<rect x="1183.4" y="993.1" class="st13" width="3.8" height="49.5"/>
			<rect x="1000.5" y="993.1" class="st13" width="3.8" height="49.5"/>
		</g>
		<g>
			<g>
				<rect x="1679.4" y="1054" class="st12" width="3.8" height="195.2"/>
				<rect x="1624.5" y="1054" class="st12" width="3.8" height="195.2"/>
			</g>
			<g>
				<rect x="1626.4" y="1057.4" class="st12" width="54.9" height="3.8"/>
				
					<rect x="1670.3" y="1055" transform="matrix(-0.7073 0.7069 -0.7069 -0.7073 3609.8064 640.9406)" class="st12" width="3.8" height="25.6"/>
				
					<rect x="1633.7" y="1055.1" transform="matrix(0.7073 0.7069 -0.7069 0.7073 1233.5916 -843.6354)" class="st12" width="3.8" height="25.6"/>
			</g>
			<g>
				<rect x="1626.4" y="1095.7" class="st12" width="54.9" height="3.8"/>
				
					<rect x="1670.3" y="1093.3" transform="matrix(-0.7071 0.7071 -0.7071 -0.7071 3636.7205 705.8771)" class="st12" width="3.8" height="25.6"/>
				
					<rect x="1633.6" y="1093.4" transform="matrix(0.7072 0.707 -0.707 0.7072 1260.9479 -832.4608)" class="st12" width="3.8" height="25.6"/>
			</g>
			<g>
				<rect x="1626.4" y="1134.1" class="st12" width="54.9" height="3.8"/>
				
					<rect x="1670.2" y="1131.6" transform="matrix(-0.707 0.7072 -0.7072 -0.707 3663.5701 771.0804)" class="st12" width="3.8" height="25.6"/>
				
					<rect x="1633.6" y="1131.7" transform="matrix(0.7071 0.7071 -0.7071 0.7071 1288.2653 -821.235)" class="st12" width="3.8" height="25.6"/>
			</g>
			<g>
				<rect x="1626.4" y="1172.4" class="st12" width="54.9" height="3.8"/>
				
					<rect x="1670.3" y="1170" transform="matrix(-0.707 0.7072 -0.7072 -0.707 3690.8677 836.4236)" class="st12" width="3.8" height="25.6"/>
				
					<rect x="1633.6" y="1170" transform="matrix(0.7071 0.7071 -0.7071 0.7071 1315.3732 -810.0265)" class="st12" width="3.8" height="25.6"/>
			</g>
			<g>
				<rect x="1626.4" y="1210.7" class="st12" width="54.9" height="3.8"/>
				
					<rect x="1670.3" y="1208.3" transform="matrix(-0.7071 0.7071 -0.7071 -0.7071 3718.0652 902.1202)" class="st12" width="3.8" height="25.6"/>
				
					<rect x="1633.5" y="1208.3" transform="matrix(0.707 0.7072 -0.7072 0.707 1342.743 -798.8279)" class="st12" width="3.8" height="25.6"/>
			</g>
		</g>
		<g>
			<g>
				<rect x="1370.5" y="1054" class="st12" width="3.8" height="195.2"/>
				<rect x="1315.6" y="1054" class="st12" width="3.8" height="195.2"/>
			</g>
			<g>
				<rect x="1317.5" y="1057.4" class="st12" width="54.9" height="3.8"/>
				
					<rect x="1361.4" y="1055.1" transform="matrix(-0.7069 0.7073 -0.7073 -0.7069 3082.3206 858.466)" class="st12" width="3.8" height="25.6"/>
				
					<rect x="1324.8" y="1055" transform="matrix(0.7071 0.7071 -0.7071 0.7071 1143.6414 -625.3571)" class="st12" width="3.8" height="25.6"/>
			</g>
			<g>
				<rect x="1317.5" y="1095.7" class="st12" width="54.9" height="3.8"/>
				
					<rect x="1361.3" y="1093.3" transform="matrix(-0.7069 0.7073 -0.7073 -0.7069 3109.1394 923.8641)" class="st12" width="3.8" height="25.6"/>
				
					<rect x="1324.8" y="1093.3" transform="matrix(0.7071 0.7071 -0.7071 0.7071 1170.7487 -614.1508)" class="st12" width="3.8" height="25.6"/>
			</g>
			<g>
				<rect x="1317.5" y="1134.1" class="st12" width="54.9" height="3.8"/>
				
					<rect x="1361.3" y="1131.7" transform="matrix(-0.7071 0.7071 -0.7071 -0.7071 3136.4612 989.8582)" class="st12" width="3.8" height="25.6"/>
				
					<rect x="1324.7" y="1131.7" transform="matrix(0.7071 0.7071 -0.7071 0.7071 1197.8252 -602.8721)" class="st12" width="3.8" height="25.6"/>
			</g>
			<g>
				<rect x="1317.5" y="1172.4" class="st12" width="54.9" height="3.8"/>
				
					<rect x="1361.4" y="1169.9" transform="matrix(-0.7073 0.7069 -0.7069 -0.7073 3163.646 1055.559)" class="st12" width="3.8" height="25.6"/>
				
					<rect x="1324.8" y="1170" transform="matrix(0.7071 0.7071 -0.7071 0.7071 1224.9332 -591.665)" class="st12" width="3.8" height="25.6"/>
			</g>
			<g>
				<rect x="1317.5" y="1210.7" class="st12" width="54.9" height="3.8"/>
				
					<rect x="1361.3" y="1208.3" transform="matrix(-0.7071 0.7071 -0.7071 -0.7071 3190.6492 1120.5651)" class="st12" width="3.8" height="25.6"/>
				
					<rect x="1324.8" y="1208.3" transform="matrix(0.7071 0.7071 -0.7071 0.7071 1252.0356 -580.4568)" class="st12" width="3.8" height="25.6"/>
			</g>
		</g>
		<g>
			<g>
				<rect x="1216.1" y="1054" class="st12" width="3.8" height="195.2"/>
				<rect x="1161.2" y="1054" class="st12" width="3.8" height="195.2"/>
			</g>
			<g>
				<rect x="1163.1" y="1057.4" class="st12" width="54.9" height="3.8"/>
				
					<rect x="1206.9" y="1055.1" transform="matrix(-0.7069 0.7073 -0.7073 -0.7069 2818.6028 967.7851)" class="st12" width="3.8" height="25.6"/>
				
					<rect x="1170.4" y="1055" transform="matrix(0.7071 0.7071 -0.7071 0.7071 1098.3655 -516.1703)" class="st12" width="3.8" height="25.6"/>
			</g>
			<g>
				<rect x="1163.1" y="1095.7" class="st12" width="54.9" height="3.8"/>
				
					<rect x="1207" y="1093.3" transform="matrix(-0.7071 0.7071 -0.7071 -0.7071 2845.7754 1033.4583)" class="st12" width="3.8" height="25.6"/>
				
					<rect x="1170.3" y="1093.4" transform="matrix(0.7073 0.7069 -0.7069 0.7073 1125.0776 -504.8607)" class="st12" width="3.8" height="25.6"/>
			</g>
			<g>
				<rect x="1163.1" y="1134.1" class="st12" width="54.9" height="3.8"/>
				
					<rect x="1207" y="1131.7" transform="matrix(-0.7073 0.7069 -0.7069 -0.7073 2873.0674 1099.4418)" class="st12" width="3.8" height="25.6"/>
				
					<rect x="1170.3" y="1131.7" transform="matrix(0.7073 0.7069 -0.7069 0.7073 1152.176 -493.662)" class="st12" width="3.8" height="25.6"/>
			</g>
			<g>
				<rect x="1163.1" y="1172.4" class="st12" width="54.9" height="3.8"/>
				
					<rect x="1207" y="1169.9" transform="matrix(-0.7073 0.7069 -0.7069 -0.7073 2899.9517 1164.6793)" class="st12" width="3.8" height="25.6"/>
				
					<rect x="1170.3" y="1169.9" transform="matrix(0.7069 0.7073 -0.7073 0.7069 1180.0944 -482.4914)" class="st12" width="3.8" height="25.6"/>
			</g>
			<g>
				<rect x="1163.1" y="1210.7" class="st12" width="54.9" height="3.8"/>
				
					<rect x="1207" y="1208.3" transform="matrix(-0.7071 0.7071 -0.7071 -0.7071 2927.1201 1229.7013)" class="st12" width="3.8" height="25.6"/>
				
					<rect x="1170.4" y="1208.3" transform="matrix(0.7071 0.7071 -0.7071 0.7071 1206.7614 -471.2684)" class="st12" width="3.8" height="25.6"/>
			</g>
		</g>
	</g>
	<g>
		<g>
			<g>
				<polyline class="st15" points="1911,532.5 1741,430.2 1482.5,550.8 				"/>
				<g>
					<polyline class="st16" points="1459.4,576.2 1715.4,576.2 1715.4,550.9 1459.4,550.9 					"/>
					<line class="st16" x1="1680.5" y1="577" x2="1680.5" y2="551.6"/>
					<line class="st16" x1="1645.6" y1="551.6" x2="1645.6" y2="577"/>
					<line class="st16" x1="1610.7" y1="551.6" x2="1610.7" y2="577"/>
					<line class="st16" x1="1575.8" y1="551.6" x2="1575.8" y2="577"/>
					<line class="st16" x1="1541" y1="551.6" x2="1541" y2="577"/>
					<line class="st16" x1="1506.1" y1="551.6" x2="1506.1" y2="577"/>
					<line class="st16" x1="1715.4" y1="550.9" x2="1680.5" y2="576.2"/>
					<line class="st16" x1="1680.5" y1="550.9" x2="1645.6" y2="576.2"/>
					<line class="st16" x1="1645.6" y1="550.9" x2="1610.7" y2="576.2"/>
					<line class="st16" x1="1610.7" y1="550.9" x2="1575.8" y2="576.2"/>
					<line class="st16" x1="1575.8" y1="550.9" x2="1541" y2="576.2"/>
					<line class="st16" x1="1541" y1="550.9" x2="1506.1" y2="576.2"/>
					<line class="st16" x1="1505.5" y1="550.8" x2="1470.6" y2="576.1"/>
				</g>
				<g>
					<line class="st16" x1="1741.6" y1="499.9" x2="1767.1" y2="499.9"/>
					<line class="st16" x1="1741.6" y1="534.8" x2="1767.1" y2="534.8"/>
					<line class="st16" x1="1741" y1="499.9" x2="1766.3" y2="534.8"/>
					<line class="st16" x1="1741" y1="534.8" x2="1766.3" y2="569.7"/>
					<polyline class="st16" points="1766.3,465.1 1741,465.1 1741,651.2 1766.3,651.2 1766.3,465.1 1741,430.2 1741,465.1 
						1766.3,499.9 					"/>
				</g>
				<line class="st16" x1="1741.6" y1="569.7" x2="1767.1" y2="569.7"/>
				<line class="st16" x1="1741.6" y1="604.6" x2="1767.1" y2="604.6"/>
				<line class="st16" x1="1741" y1="569.7" x2="1766.3" y2="604.6"/>
				<line class="st16" x1="1740.9" y1="605.2" x2="1766.2" y2="640.1"/>
				<g>
					<rect x="1689.9" y="550.9" class="st16" width="256" height="25.3"/>
					<line class="st16" x1="1911" y1="577" x2="1911" y2="551.6"/>
					<line class="st16" x1="1876.1" y1="551.6" x2="1876.1" y2="577"/>
					<line class="st16" x1="1841.2" y1="551.6" x2="1841.2" y2="577"/>
					<line class="st16" x1="1806.3" y1="551.6" x2="1806.3" y2="577"/>
					<line class="st16" x1="1771.4" y1="551.6" x2="1771.4" y2="577"/>
					<line class="st16" x1="1736.5" y1="551.6" x2="1736.5" y2="577"/>
					<line class="st16" x1="1945.9" y1="550.9" x2="1911" y2="576.2"/>
					<line class="st16" x1="1911" y1="550.9" x2="1876.1" y2="576.2"/>
					<line class="st16" x1="1876.1" y1="550.9" x2="1841.2" y2="576.2"/>
					<line class="st16" x1="1841.2" y1="550.9" x2="1806.3" y2="576.2"/>
					<line class="st16" x1="1806.3" y1="550.9" x2="1771.4" y2="576.2"/>
					<line class="st16" x1="1771.4" y1="550.9" x2="1736.5" y2="576.2"/>
					<line class="st16" x1="1735.9" y1="550.8" x2="1701.1" y2="576.1"/>
				</g>
				<rect x="1677.3" y="550.8" class="st17" width="116" height="43.6"/>
				<rect x="1715.3" y="608.1" class="st14" width="66.2" height="43.6"/>
				<rect x="1727.2" y="668.8" class="st18" width="42.4" height="563.2"/>
				<rect x="1717" y="1211.5" class="st19" width="62.9" height="37"/>
				<g>
					<polygon class="st17" points="1703.5,1219.6 1707.5,1219.6 1703.5,1223.6 					"/>
					<polygon class="st17" points="1793.3,1249.3 1788.9,1249.3 1793.3,1244.9 					"/>
					<polygon class="st20" points="1793.3,1244.9 1788.9,1249.3 1773,1249.3 1793.3,1229 					"/>
					<polygon class="st20" points="1703.5,1223.6 1707.5,1219.6 1723.4,1219.6 1703.5,1239.4 					"/>
					<polygon class="st17" points="1793.3,1219.6 1793.3,1229 1773,1249.3 1757.1,1249.3 1786.9,1219.6 					"/>
					<polygon class="st17" points="1703.5,1239.4 1723.4,1219.6 1739.2,1219.6 1709.5,1249.3 1703.5,1249.3 					"/>
					<polygon class="st17" points="1771,1219.6 1741.3,1249.3 1725.4,1249.3 1755.1,1219.6 					"/>
					<polygon class="st20" points="1786.9,1219.6 1757.1,1249.3 1741.3,1249.3 1771,1219.6 					"/>
					<polygon class="st20" points="1755.1,1219.6 1725.4,1249.3 1709.5,1249.3 1739.2,1219.6 					"/>
				</g>
				<line class="st18" x1="1728.3" y1="668.8" x2="1771" y2="668.8"/>
				<line class="st18" x1="1771" y1="727.3" x2="1728.3" y2="727.3"/>
				<line class="st18" x1="1728.3" y1="785.8" x2="1771" y2="785.8"/>
				<line class="st18" x1="1728.3" y1="844.3" x2="1771" y2="844.3"/>
				<line class="st18" x1="1728.3" y1="902.7" x2="1771" y2="902.7"/>
				<line class="st18" x1="1728.3" y1="961.2" x2="1771" y2="961.2"/>
				<line class="st18" x1="1728.3" y1="1019.7" x2="1771" y2="1019.7"/>
				<line class="st18" x1="1728.3" y1="1078.2" x2="1771" y2="1078.2"/>
				<line class="st18" x1="1727.2" y1="668.8" x2="1769.6" y2="727.3"/>
				<line class="st18" x1="1727.2" y1="727.3" x2="1769.6" y2="785.8"/>
				<line class="st18" x1="1727.2" y1="785.8" x2="1769.6" y2="844.3"/>
				<line class="st18" x1="1727.2" y1="844.3" x2="1769.6" y2="902.7"/>
				<line class="st18" x1="1727.2" y1="902.7" x2="1769.6" y2="961.2"/>
				<line class="st18" x1="1727.2" y1="961.2" x2="1769.6" y2="1019.7"/>
				<line class="st18" x1="1727" y1="1020.7" x2="1769.4" y2="1079.2"/>
				<rect x="1717" y="650.2" class="st20" width="62.9" height="18.5"/>
				<rect x="1705.7" y="642.4" class="st19" width="85.4" height="18.5"/>
				<rect x="1668.1" y="591.4" class="st19" width="133.6" height="6.8"/>
				<polygon class="st20" points="1715.3,608.1 1673.3,598.3 1797.6,598.3 1781.5,608.1 				"/>
				<rect x="1677.3" y="555.3" class="st20" width="62.9" height="26.3"/>
				<rect x="1914.7" y="532.7" class="st20" width="55.2" height="87.1"/>
				<rect x="1914.7" y="532.7" class="st21" width="13.7" height="87.1"/>
				<rect x="1903.2" y="523.3" class="st19" width="85.4" height="18.5"/>
			</g>
			<g>
				<rect x="1226.3" y="550.9" class="st16" width="244.8" height="25.3"/>
				<line class="st16" x1="1401.4" y1="551.6" x2="1401.4" y2="577"/>
				<line class="st16" x1="1366.5" y1="551.6" x2="1366.5" y2="577"/>
				<line class="st16" x1="1331.6" y1="551.6" x2="1331.6" y2="577"/>
				<line class="st16" x1="1296.7" y1="551.6" x2="1296.7" y2="577"/>
				<line class="st16" x1="1261.8" y1="551.6" x2="1261.8" y2="577"/>
				<line class="st16" x1="1436.3" y1="550.9" x2="1401.4" y2="576.2"/>
				<line class="st16" x1="1401.4" y1="550.9" x2="1366.5" y2="576.2"/>
				<line class="st16" x1="1366.5" y1="550.9" x2="1331.6" y2="576.2"/>
				<line class="st16" x1="1331.6" y1="550.9" x2="1296.7" y2="576.2"/>
				<line class="st16" x1="1296.7" y1="550.9" x2="1261.8" y2="576.2"/>
				<line class="st16" x1="1261.2" y1="550.8" x2="1226.3" y2="576.1"/>
				<line class="st16" x1="1436.3" y1="551.9" x2="1436.3" y2="577.4"/>
				<line class="st16" x1="1471.1" y1="551.2" x2="1436.3" y2="576.5"/>
			</g>
			<line class="st16" x1="1156.5" y1="551.6" x2="1156.5" y2="577"/>
			<line class="st16" x1="1121.6" y1="551.6" x2="1121.6" y2="577"/>
			<line class="st16" x1="1191.4" y1="550.9" x2="1156.5" y2="576.2"/>
			<line class="st16" x1="1156.5" y1="550.9" x2="1121.6" y2="576.2"/>
			<line class="st16" x1="1191.4" y1="551.9" x2="1191.4" y2="577.4"/>
			<line class="st16" x1="1226.3" y1="551.2" x2="1191.4" y2="576.5"/>
			<polyline class="st16" points="1121.7,550.9 1121.7,576.2 1331.6,576.2 1331.6,550.9 1121.7,550.9 1086.8,576.2 1121.7,576.2 
				1156.6,550.9 			"/>
		</g>
		<line class="st18" x1="1727.7" y1="1197.2" x2="1741.3" y2="1215.9"/>
		<line class="st18" x1="1729" y1="1137.7" x2="1771.7" y2="1137.7"/>
		<line class="st18" x1="1729" y1="1196.2" x2="1771.7" y2="1196.2"/>
		<line class="st18" x1="1727.9" y1="1079.2" x2="1770.3" y2="1137.7"/>
		<line class="st18" x1="1727.9" y1="1137.7" x2="1770.3" y2="1196.2"/>
		<g>
			<g>
				<rect x="1088.1" y="565.9" class="st20" width="62.9" height="26.3"/>
				<rect x="1088.1" y="574.1" class="st22" width="49.6" height="14.4"/>
			</g>
			<rect x="1110.9" y="608.3" class="st20" width="17.3" height="6"/>
			<rect x="1116.6" y="612.2" class="st20" width="6" height="10.4"/>
			<path class="st20" d="M1119.6,618.6L1119.6,618.6v4l0,0c-2.1,0-3.8,1.7-3.8,3.8s1.7,3.8,3.8,3.8c1.1,0,2-0.4,2.7-1.1l2.8,2.8
				c-1.4,1.4-3.4,2.3-5.6,2.3c-4.3,0-7.9-3.5-7.9-7.8C1111.7,622.1,1115.2,618.6,1119.6,618.6z"/>
			<line class="st23" x1="1120.1" y1="590.8" x2="1120.1" y2="611.3"/>
			<line class="st23" x1="1119.6" y1="628.9" x2="1119.6" y2="649.4"/>
			<rect x="1114.1" y="640" class="st21" width="10.9" height="23.9"/>
		</g>
	</g>
	<g>
		<path class="st24" d="M1734.6,1129.9c-2.8,0-5.4,0.3-8,0.9c-8,1.8-15,6.1-20,12.2h29.1h27.1
			C1756,1135,1745.9,1129.9,1734.6,1129.9z"/>
		<polygon class="st12" points="1793.9,1178.5 1827.4,1177.3 1829.9,1174.4 1846,1174.4 1850,1153.1 1709.1,1162 1742.7,1221.1 		
			"/>
		<polygon class="st8" points="1697.9,1181.1 1711.7,1198 1731.5,1194.9 1713.6,1190.9 1697.9,1171.2 		"/>
		<polygon class="st8" points="1632.2,1177.3 1623,1209.1 1682.9,1210.7 1695.2,1187.3 1699.4,1186.3 1700.6,1172.8 1712.9,1170.2 
			1687.4,1159.2 1650.8,1156.5 		"/>
		<polygon class="st8" points="1680.6,1196.9 1680.6,1224 1804.2,1224 1804.2,1170 		"/>
		<g>
			<path class="st25" d="M1829.9,1213.2c0-19.9-16.1-36-36-36s-36,16.1-36,36s16.1,36,36,36S1829.9,1233.1,1829.9,1213.2"/>
			<path class="st26" d="M1815.6,1213.2c0-12-9.7-21.7-21.7-21.7s-21.7,9.7-21.7,21.7s9.7,21.7,21.7,21.7
				C1805.9,1235,1815.6,1225.2,1815.6,1213.2"/>
			<path class="st27" d="M1805,1213.2c0-6.1-4.9-11.1-11.1-11.1c-6.1,0-11.1,5-11.1,11.1s4.9,11.1,11.1,11.1
				C1800,1224.3,1805,1219.4,1805,1213.2"/>
		</g>
		<g>
			<path class="st25" d="M1704.4,1213.2c0-19.9-16.1-36-36-36s-36,16.1-36,36s16.1,36,36,36S1704.4,1233.1,1704.4,1213.2"/>
			<path class="st26" d="M1690.1,1213.2c0-12-9.7-21.7-21.7-21.7s-21.7,9.7-21.7,21.7s9.7,21.7,21.7,21.7
				C1680.4,1235,1690.1,1225.2,1690.1,1213.2"/>
			<path class="st27" d="M1679.5,1213.2c0-6.1-4.9-11.1-11.1-11.1s-11.1,5-11.1,11.1s4.9,11.1,11.1,11.1
				C1674.5,1224.3,1679.5,1219.4,1679.5,1213.2"/>
		</g>
		<polygon class="st17" points="1626.2,1172.3 1621.9,1192.7 1629.1,1192.7 1641.1,1172.3 		"/>
		<polygon class="st14" points="1694.4,1150.2 1690,1166.7 1722.4,1166.7 1722.4,1150.2 		"/>
		<polygon class="st26" points="1668.6,1133 1637.6,1133 1629.5,1160.2 1678.1,1155.4 		"/>
		<polygon class="st8" points="1668.6,1133 1637.6,1133 1629.5,1160.2 1678.1,1155.4 		"/>
		
			<rect x="1728.4" y="1180.7" transform="matrix(0.2131 0.977 -0.977 0.2131 2519.7002 -759.8068)" class="st17" width="6.3" height="7.3"/>
		
			<rect x="1747" y="1176.7" transform="matrix(0.2133 0.977 -0.977 0.2133 2530.0505 -781.3412)" class="st17" width="6.3" height="7.3"/>
		
			<rect x="1766.1" y="1172.6" transform="matrix(0.2128 0.9771 -0.9771 0.2128 2542.0735 -802.7664)" class="st17" width="6.3" height="7.3"/>
		
			<rect x="1784.8" y="1168.6" transform="matrix(0.2128 0.9771 -0.9771 0.2128 2552.7981 -824.194)" class="st17" width="6.3" height="7.3"/>
		
			<rect x="1803.7" y="1164.8" transform="matrix(0.2135 0.9769 -0.9769 0.2135 2562.6543 -846.221)" class="st17" width="6.3" height="7.3"/>
		
			<rect x="1822.6" y="1160.7" transform="matrix(0.2128 0.9771 -0.9771 0.2128 2574.9832 -867.3583)" class="st17" width="6.3" height="7.3"/>
		<polygon class="st17" points="1840.5,1158.2 1841.8,1164.3 1848.9,1162.8 1847.6,1156.6 		"/>
		<polyline class="st17" points="1872.1,1152.1 1867.8,1159.2 1860.6,1160.8 1859.3,1154.6 		"/>
		<polygon class="st17" points="1626.1,1122.5 1626.1,1127.2 1680.6,1127.2 1714.2,1186.3 1871.4,1152.1 1871.4,1143 1703.4,1143 
			1691.7,1122.5 		"/>
		<polygon class="st2" points="1666.8,1135.7 1639.3,1135.7 1634.5,1151.9 1672.2,1148.2 		"/>
		<polygon class="st28" points="1634.5,1151.9 1631.3,1162.8 1676.3,1158 1672.2,1148.2 		"/>
		<rect x="1650.8" y="1133.7" class="st8" width="2.6" height="25"/>
		<polygon class="st17" points="1678.1,1155.4 1629.5,1160.2 1626.9,1169 1622.8,1169 1621.2,1170.5 1621.2,1174.9 1685.3,1174.9 		
			"/>
		<rect x="1706.5" y="1198.5" class="st17" width="48.9" height="37.7"/>
		<rect x="1621.9" y="1192.7" class="st17" width="7.3" height="34.5"/>
		<rect x="1712.8" y="1204.5" class="st29" width="5.9" height="25.8"/>
		<rect x="1723" y="1204.5" class="st29" width="5.9" height="25.8"/>
		<rect x="1733.2" y="1204.5" class="st29" width="5.9" height="25.8"/>
		<rect x="1743.4" y="1204.5" class="st29" width="5.9" height="25.8"/>
		<polygon class="st29" points="1708,1151.2 1721.6,1175 1830.8,1151.2 		"/>
		<rect x="1614.7" y="1144.9" class="st30" width="1.1" height="28.7"/>
		<rect x="1628" y="1144.9" class="st30" width="1.1" height="28.7"/>
		<rect x="1642.4" y="1144.9" class="st30" width="1.1" height="28.7"/>
		<rect x="1642.4" y="1144.9" class="st30" width="1.1" height="28.7"/>
		<rect x="1655.7" y="1144.9" class="st30" width="1.1" height="28.7"/>
		<rect x="1670" y="1144.9" class="st30" width="1.1" height="28.7"/>
		<rect x="1614.7" y="1144.3" class="st30" width="56.4" height="1.1"/>
		<rect x="1614.7" y="1158.7" class="st30" width="56.4" height="1.1"/>
		<rect x="1614.7" y="1174.4" class="st30" width="6.5" height="0.5"/>
		<rect x="1614.7" y="1173.6" class="st30" width="56.4" height="1.3"/>
		<polygon class="st17" points="1668.6,1133 1667.7,1131 1638.2,1131 1637.6,1133 		"/>
		<path class="st31" d="M1750.4,1143h46.9c5.1-6,12.1-10.4,20.1-12.2c-9.7-9.8-23.1-15.9-38-15.9c-17.6,0-33.3,8.5-43,21.7
			C1742,1136.7,1747,1139.1,1750.4,1143z"/>
		<path class="st24" d="M1849.2,1143c-6.7-8-16.8-13.1-28.1-13.1c-2.8,0-5.4,0.3-8,0.9c3.5,3.6,6.6,7.7,9,12.2H1849.2L1849.2,1143z"
			/>
		<path class="st24" d="M1793,1143h29.1c-2.4-4.5-5.5-8.6-9-12.2C1805.1,1132.6,1798.1,1137,1793,1143z"/>
		<path class="st32" d="M1736.4,1136.7c-0.1,0-0.2,0-0.2,0c-5.7,0-10.7,2.4-14.2,6.3h10.5
			C1733.6,1140.8,1734.9,1138.7,1736.4,1136.7z"/>
		<path class="st32" d="M1750.4,1143c-3.5-3.8-8.4-6.3-14-6.3c-1.5,2-2.8,4.1-4,6.3H1750.4z"/>
	</g>
	<g>
		<rect x="1825.5" y="1206.9" class="st30" width="4.1" height="42.5"/>
		<rect x="1866.4" y="1206.9" class="st30" width="4.1" height="42.5"/>
		<polygon class="st33" points="1878.9,1211.5 1876.2,1211.5 1878.9,1214.3 		"/>
		<polygon class="st33" points="1817.1,1232 1820.1,1232 1817.1,1228.9 		"/>
		<polygon class="st33" points="1817.1,1211.5 1817.1,1218 1831.1,1232 1842,1232 1821.5,1211.5 		"/>
		<polygon class="st33" points="1878.9,1225.2 1865.2,1211.5 1854.3,1211.5 1874.8,1232 1878.9,1232 		"/>
		<polygon class="st33" points="1832.5,1211.5 1852.9,1232 1863.9,1232 1843.4,1211.5 		"/>
		<polygon class="st34" points="1817.1,1228.9 1820.1,1232 1831.1,1232 1817.1,1218 		"/>
		<polygon class="st34" points="1821.5,1211.5 1842,1232 1852.9,1232 1832.5,1211.5 		"/>
		<polygon class="st34" points="1843.4,1211.5 1863.9,1232 1874.8,1232 1854.3,1211.5 		"/>
		<polygon class="st34" points="1878.9,1214.3 1876.2,1211.5 1865.2,1211.5 1878.9,1225.2 		"/>
		<rect x="1826.9" y="1240.3" class="st30" width="42.5" height="4.1"/>
	</g>
	<g>
		<rect x="66" y="1206.7" class="st30" width="4.1" height="42.5"/>
		<rect x="107" y="1206.7" class="st30" width="4.1" height="42.5"/>
		<polygon class="st33" points="119.5,1211.3 116.7,1211.3 119.5,1214.1 		"/>
		<polygon class="st33" points="57.6,1231.8 60.7,1231.8 57.6,1228.8 		"/>
		<polygon class="st33" points="57.6,1211.3 57.6,1217.8 71.6,1231.8 82.5,1231.8 62.1,1211.3 		"/>
		<polygon class="st33" points="119.5,1225 105.8,1211.3 94.9,1211.3 115.3,1231.8 119.5,1231.8 		"/>
		<polygon class="st33" points="73,1211.3 93.5,1231.8 104.4,1231.8 83.9,1211.3 		"/>
		<polygon class="st34" points="57.6,1228.8 60.7,1231.8 71.6,1231.8 57.6,1217.8 		"/>
		<polygon class="st34" points="62.1,1211.3 82.5,1231.8 93.5,1231.8 73,1211.3 		"/>
		<polygon class="st34" points="83.9,1211.3 104.4,1231.8 115.3,1231.8 94.9,1211.3 		"/>
		<polygon class="st34" points="119.5,1214.1 116.7,1211.3 105.8,1211.3 119.5,1225 		"/>
		<rect x="67.5" y="1240.1" class="st30" width="42.5" height="4.1"/>
	</g>
	<g>
		<polygon class="st35" points="1013.9,1132.7 1038.2,1127.1 1041.6,1130.6 1029.8,1140.1 		"/>
		<path class="st36" d="M979.1,1122.5h22.3l5.2-31.5c0,0-19.5-15.9-44.3,2.7L979.1,1122.5z"/>
		<rect x="1040.3" y="1150.7" class="st37" width="1.1" height="3.8"/>
		<polygon class="st38" points="1039.2,1153.8 1042.5,1153.8 1042.5,1171.7 1039.2,1162.8 		"/>
		<polygon class="st17" points="1041.6,1183 1015.6,1144.3 993.2,1130.6 996.9,1125.8 1030.2,1139.3 1046.1,1179.4 1041.5,1184.3 		
			"/>
		<path class="st29" d="M1029.2,1202.2l3.9-5.9l17.6,17.7v7.1h5.9v-3.3l8.1,0.3v14.7h-12l-6.6-5.6
			C1046,1227.3,1049.5,1211,1029.2,1202.2z"/>
		<polygon class="st39" points="1009.3,1088.4 1007.3,1124.1 977.9,1124.1 954.1,1085.3 955.2,1085.3 957.7,1088.4 1000.7,1090.8 		
			"/>
		<polygon class="st29" points="1173,1223.8 1145.7,1223.8 1097.2,1229 1084.6,1229 1084.6,1190.5 1147.1,1190.5 1172.7,1221.2 		
			"/>
		<polygon class="st40" points="1173.8,1205.1 1166.5,1205.1 1156.5,1171.8 1165.3,1171.8 1173.8,1175.7 		"/>
		<polygon class="st41" points="1161.9,1205.1 1176.7,1205.1 1176.7,1221.2 1172.7,1221.2 1161.9,1221.2 		"/>
		<path class="st42" d="M1091.7,1144.4L1091.7,1144.4c-2.1,0-3.9-1.7-3.9-3.9v-5c0-2.1,1.7-3.9,3.9-3.9c2.1,0,3.9,1.7,3.9,3.9v5
			C1095.5,1142.6,1093.8,1144.4,1091.7,1144.4"/>
		<polygon class="st12" points="1014.3,1149.7 1023.5,1163.9 1025,1163.1 1015.5,1149.1 		"/>
		<rect x="1039.6" y="1130.6" class="st12" width="2.4" height="20.1"/>
		<path class="st37" d="M1033.5,1184.1l-11.3-16.4c-1.2-1.8-0.8-4.3,1-5.5s4.3-0.8,5.5,1l11.3,16.4c1.2,1.8,0.8,4.3-1,5.5
			C1037.3,1186.4,1034.8,1185.9,1033.5,1184.1"/>
		<polygon class="st17" points="1033.1,1196.3 1026.7,1194.2 1026.7,1189 1031.9,1189 1035.1,1191.8 1056.9,1211.1 1056.6,1221.2 
			1050.7,1221.2 1050.7,1214 		"/>
		<path class="st43" d="M1107.5,1226.3c0,0.1,0,0.2,0,0.4v-0.1C1107.5,1226.4,1107.5,1226.4,1107.5,1226.3"/>
		<path class="st43" d="M1100.6,1226.5c0,0.3,0,0.5,0.1,0.8c0-0.4,0-0.8-0.1-1.2C1100.6,1226.3,1100.6,1226.4,1100.6,1226.5"/>
		<g>
			<path class="st25" d="M1047.3,1224.8c0-13.5-10.9-24.4-24.4-24.4s-24.4,10.9-24.4,24.4s10.9,24.4,24.4,24.4
				C1036.3,1249.2,1047.3,1238.3,1047.3,1224.8"/>
			<path class="st26" d="M1037.6,1224.8c0-8.2-6.6-14.8-14.8-14.8s-14.8,6.6-14.8,14.8s6.6,14.8,14.8,14.8
				C1031,1239.5,1037.6,1232.9,1037.6,1224.8"/>
			<path class="st27" d="M1030.3,1224.8c0-4.1-3.4-7.5-7.5-7.5s-7.5,3.4-7.5,7.5c0,4.2,3.4,7.5,7.5,7.5S1030.3,1228.9,1030.3,1224.8
				"/>
		</g>
		<g>
			<path class="st25" d="M1145.7,1224.8c0-13.5-10.9-24.4-24.4-24.4s-24.4,10.9-24.4,24.4s10.9,24.4,24.4,24.4
				C1134.8,1249.2,1145.7,1238.3,1145.7,1224.8"/>
			<path class="st26" d="M1136.1,1224.8c0-8.2-6.6-14.8-14.8-14.8s-14.8,6.6-14.8,14.8s6.6,14.8,14.8,14.8
				S1136.1,1232.9,1136.1,1224.8"/>
			<path class="st27" d="M1128.8,1224.8c0-4.1-3.4-7.5-7.5-7.5c-4.2,0-7.5,3.4-7.5,7.5c0,4.2,3.4,7.5,7.5,7.5
				S1128.8,1228.9,1128.8,1224.8"/>
		</g>
		<rect x="1064.7" y="1212.4" class="st44" width="13" height="4.5"/>
		<rect x="1064.7" y="1224.5" class="st44" width="13" height="4.5"/>
		<polygon class="st19" points="1038.4,1188.2 1035.1,1191.8 1056.9,1211.1 1056.6,1217.9 1059.4,1217.9 1059.4,1211 		"/>
		<polygon class="st35" points="1038.4,1188.2 1039.2,1185.3 1045.3,1178.6 1049.7,1178.6 1049.7,1194.7 1064.7,1210.3 
			1064.7,1218.2 1059.4,1217.9 1059.4,1211 		"/>
		<path class="st45" d="M1040.8,1181.8c0-2.2-1.8-4-4-4s-4,1.8-4,4s1.8,4,4,4S1040.8,1184,1040.8,1181.8"/>
		<path class="st17" d="M1038.9,1181.8c0-1.1-0.9-2.1-2.1-2.1c-1.1,0-2.1,0.9-2.1,2.1c0,1.1,0.9,2.1,2.1,2.1
			C1037.9,1183.9,1038.9,1183,1038.9,1181.8"/>
		<path class="st46" d="M1018.7,1145.2c0-2.7-2.2-4.8-4.8-4.8c-2.7,0-4.8,2.2-4.8,4.8c0,2.7,2.2,4.8,4.8,4.8
			C1016.6,1150.1,1018.7,1147.9,1018.7,1145.2"/>
		<path class="st17" d="M1016.4,1145.2c0-1.4-1.1-2.5-2.5-2.5s-2.5,1.1-2.5,2.5s1.1,2.5,2.5,2.5
			C1015.3,1147.7,1016.4,1146.6,1016.4,1145.2"/>
		<path class="st46" d="M1046.4,1126.6c0-2.7-2.2-4.8-4.8-4.8c-2.7,0-4.8,2.2-4.8,4.8c0,2.7,2.2,4.8,4.8,4.8
			C1044.3,1131.4,1046.4,1129.3,1046.4,1126.6"/>
		<path class="st17" d="M1044.1,1126.6c0-1.4-1.1-2.5-2.5-2.5s-2.5,1.1-2.5,2.5s1.1,2.5,2.5,2.5S1044.1,1128,1044.1,1126.6"/>
		<rect x="1087.8" y="1142.1" class="st47" width="7.7" height="2.9"/>
		<rect x="1087.8" y="1140.4" class="st48" width="7.7" height="1.7"/>
		<rect x="1102.2" y="1166.1" class="st49" width="38.9" height="2.9"/>
		<rect x="1124.3" y="1143.9" class="st41" width="6.5" height="22.2"/>
		<polygon class="st41" points="1133.2,1138.9 1133.2,1147.3 1124.3,1147.3 1124.3,1143.9 		"/>
		<path class="st46" d="M997.6,1125.3c0-3-2.4-5.3-5.3-5.3c-2.9,0-5.3,2.4-5.3,5.3c0,3,2.4,5.3,5.3,5.3
			C995.2,1130.6,997.6,1128.3,997.6,1125.3"/>
		<path class="st17" d="M995,1125.3c0-1.5-1.2-2.8-2.8-2.8c-1.5,0-2.8,1.2-2.8,2.8c0,1.5,1.2,2.8,2.8,2.8S995,1126.8,995,1125.3"/>
		<path class="st25" d="M1109.4,1193.4c1.5-0.6,3.1-1.1,4.7-1.4C1112.4,1192.3,1110.9,1192.8,1109.4,1193.4z"/>
		<path class="st17" d="M1153.6,1169h-51.4l-35.6,25.9v4.2h10.8v29.9h10.6c0,0,0-3,0-4.5c0-1.1,0.1-2.2,0.2-3.3
			c1.3-12.8,9.7-23.4,21.3-27.8c1.4-0.6,3-1.1,4.7-1.4c1.9-0.4,4-0.6,6.2-0.6c2.9,0,5.5,0.2,7.9,0.5c9.1,1.9,16.8,7.6,21.5,15.3
			c0.9,1.4,1.7,3,2.3,4.5v1.4h0.6l11.7,0.1v-6h2.8v-31.4C1166,1175.1,1153.6,1169,1153.6,1169z"/>
		<rect x="1118.4" y="1175.9" class="st41" width="35.3" height="2.2"/>
		<rect x="1118.4" y="1178.9" class="st41" width="35.3" height="2.2"/>
		<rect x="1118.4" y="1182" class="st41" width="35.3" height="2.2"/>
		<polygon class="st2" points="1061.1,1194.5 1057,1176.7 1064.9,1149 1099.9,1149 1103.9,1188.6 1098.3,1194.5 		"/>
		<g>
			<path class="st8" d="M1098.9,1150.1l3.9,38.1l-5,5.2H1062l-3.8-16.7l7.6-26.6H1098.9 M1100.9,1147.9h-2h-33.1h-1.7l-0.5,1.6
				l-7.6,26.6l-0.2,0.5l0.1,0.6l3.8,16.7l0.4,1.7h1.8h35.8h0.9l0.7-0.7l5-5.2l0.7-0.7l-0.1-1l-3.9-38.1L1100.9,1147.9L1100.9,1147.9
				z"/>
		</g>
		<polygon class="st28" points="1059.6,1183.1 1101.5,1175.9 1102.8,1188.2 1097.8,1193.4 1062,1193.4 		"/>
		<rect x="1063" y="1145" class="st17" width="39.8" height="3.5"/>
		<rect x="1063.9" y="1195.6" class="st2" width="27.7" height="1.4"/>
		<rect x="1068.3" y="1201.7" class="st2" width="18.8" height="1.4"/>
		<rect x="1068.3" y="1207.8" class="st2" width="18.8" height="1.4"/>
		<rect x="1068.3" y="1214" class="st2" width="18.8" height="1.4"/>
		<rect x="1068.3" y="1220.1" class="st2" width="18.8" height="1.4"/>
		<rect x="1068.3" y="1226.2" class="st2" width="18.8" height="1.4"/>
		<rect x="1068.3" y="1196.3" class="st2" width="1.4" height="30"/>
		<rect x="1085.7" y="1196.3" class="st2" width="1.4" height="30"/>
		<rect x="1136" y="1185.1" class="st41" width="17.6" height="2.2"/>
	</g>
	<path class="st50" d="M760.8,1220.6c19.8,0,36.8,12.1,44,29.4h61.9c-43.8-29-96.3-45.8-152.7-45.8c-5,0-9.9,0.1-14.9,0.4
		c15.8,4.6,30.8,11.1,44.8,19.2C749.1,1221.7,754.8,1220.6,760.8,1220.6z"/>
	<path class="st51" d="M700,1204.5c-0.1,0-0.1,0-0.2,0c-18.5-5.4-38.2-8.4-58.5-8.4c-53.7,0-102.7,20.4-139.6,53.9h60.6
		c0.1,0,0.1-0.1,0.2-0.1l155.2,0.1c5-12.1,14.9-21.6,27.1-26.3C730.8,1215.6,715.8,1209.2,700,1204.5z"/>
	<g>
		<polygon class="st17" points="339.1,1191 387.6,1127.8 415.1,1115.6 519.4,1117.6 519.4,1125.7 418.2,1136.9 405.6,1143.1 
			350.1,1192.9 		"/>
		<g>
			
				<rect x="425.6" y="1107.9" transform="matrix(-0.9989 4.610508e-02 -4.610508e-02 -0.9989 995.1106 2195.8369)" class="st12" width="93.3" height="2.9"/>
		</g>
		<g>
			
				<rect x="424.6" y="1107.9" transform="matrix(-0.9989 4.610508e-02 -4.610508e-02 -0.9989 952.0834 2198.9329)" class="st38" width="52.2" height="5"/>
		</g>
		<g>
			<polygon class="st12" points="370.8,1201.3 380.5,1162.5 377.8,1161.6 368.1,1200.4 			"/>
		</g>
		<g>
			<polygon class="st38" points="371.7,1202.1 377.1,1180.4 372.4,1178.8 367,1200.5 			"/>
		</g>
		<rect x="320.1" y="1207.2" class="st27" width="18.9" height="10.7"/>
		<polygon class="st14" points="321,1223.7 339.1,1223.7 340.9,1219.4 319.2,1219.4 		"/>
		<polygon class="st8" points="362,1174.5 378.8,1191.3 378.8,1211.6 368.9,1221.5 331.2,1221.5 331.2,1211.6 331.2,1174.5 		"/>
		<g>
			
				<rect x="540.3" y="1109.2" transform="matrix(-0.9847 0.1741 -0.1741 -0.9847 1276.6967 2203.0249)" class="st12" width="2.9" height="96.7"/>
		</g>
		<g>
			<polygon class="st38" points="547.2,1203.7 552.1,1202.9 550.3,1189.5 545.3,1190.4 			"/>
		</g>
		<path class="st28" d="M402.3,1247.3H268.7c-5.9,0-10.8-4.8-10.8-10.8c0-5.9,4.8-10.8,10.8-10.8h133.6c5.9,0,10.8,4.8,10.8,10.8
			S408.2,1247.3,402.3,1247.3z"/>
		<rect x="289" y="1173.2" class="st8" width="27.5" height="10.5"/>
		<rect x="276.5" y="1218" class="st14" width="54.7" height="3.6"/>
		<polygon class="st41" points="329.1,1188.7 319.2,1178.8 286.5,1178.8 276.5,1188.7 		"/>
		<rect x="276.5" y="1188.7" class="st17" width="52.5" height="29.3"/>
		<g>
			<polygon class="st2" points="373.3,1193.3 360.4,1180.4 349.8,1180.4 349.8,1205.4 373.3,1205.4 			"/>
			<rect x="335.9" y="1180.4" class="st2" width="9.8" height="25"/>
		</g>
		<polygon class="st28" points="373.3,1199.4 335.9,1195 335.9,1205.4 373.3,1205.4 		"/>
		<circle class="st52" cx="267.4" cy="1238" r="6.4"/>
		<path class="st8" d="M255.8,1236.5c0,7.1,5.8,12.9,12.9,12.9h133.6c7.1,0,12.8-5.8,12.8-12.9s-5.8-12.9-12.8-12.9H268.7
			C261.6,1223.7,255.8,1229.4,255.8,1236.5z M257.9,1236.5c0-5.9,4.8-10.8,10.8-10.8h133.6c5.9,0,10.8,4.8,10.8,10.8
			c0,5.9-4.8,10.8-10.8,10.8H268.7C262.7,1247.3,257.9,1242.5,257.9,1236.5z"/>
		<path class="st46" d="M514.2,1121.5c0-2.9,2.4-5.3,5.3-5.3s5.3,2.4,5.3,5.3s-2.4,5.3-5.3,5.3S514.2,1124.4,514.2,1121.5"/>
		<path class="st17" d="M516.7,1121.5c0-1.5,1.2-2.7,2.7-2.7s2.7,1.2,2.7,2.7s-1.2,2.7-2.7,2.7S516.7,1123,516.7,1121.5"/>
		<polygon class="st19" points="511.4,1123 520.8,1098.5 532.4,1094.3 536.2,1103.7 532.4,1132.6 540.5,1199.7 532.4,1203.7 		"/>
		<polygon class="st17" points="415.1,1115.6 425.2,1106.7 433.3,1106.7 435.8,1116 		"/>
		<polygon class="st39" points="532.2,1194.7 560.7,1205.4 553.2,1229.2 526.7,1236.4 526.7,1238.5 515.7,1242.4 516,1237.7 
			519,1236.5 532,1202.3 		"/>
		<rect x="280.6" y="1195" class="st41" width="10.4" height="22.9"/>
		<rect x="295.3" y="1211.6" class="st33" width="28.4" height="6.1"/>
		<path class="st46" d="M543.7,1189.5c0-2,1.6-3.6,3.6-3.6s3.6,1.6,3.6,3.6s-1.6,3.6-3.6,3.6S543.7,1191.5,543.7,1189.5"/>
		<path class="st17" d="M545.4,1189.5c0-1,0.8-1.9,1.9-1.9c1,0,1.8,0.8,1.8,1.9c0,1-0.8,1.8-1.8,1.8
			C546.2,1191.3,545.4,1190.5,545.4,1189.5"/>
		<g>
			
				<rect x="534.9" y="1109.4" transform="matrix(-0.9848 0.1736 -0.1736 -0.9848 1263.4692 2157.4307)" class="st38" width="5" height="49.2"/>
		</g>
		<path class="st46" d="M529.2,1110.4c0-2,1.6-3.6,3.6-3.6s3.6,1.6,3.6,3.6s-1.6,3.6-3.6,3.6C530.9,1114,529.2,1112.4,529.2,1110.4"
			/>
		<path class="st17" d="M531,1110.4c0-1,0.8-1.8,1.9-1.8c1,0,1.8,0.8,1.8,1.8s-0.8,1.8-1.8,1.8C531.8,1112.2,531,1111.4,531,1110.4"
			/>
		<path class="st46" d="M513.6,1122.3c0-1,0.8-1.8,1.8-1.8s1.9,0.8,1.9,1.8s-0.8,1.8-1.9,1.8
			C514.4,1124.2,513.6,1123.4,513.6,1122.3"/>
		<path class="st46" d="M429.8,1111.6c0-2,1.6-3.6,3.6-3.6s3.6,1.6,3.6,3.6s-1.6,3.6-3.6,3.6S429.8,1113.6,429.8,1111.6"/>
		<path class="st17" d="M431.5,1111.6c0-1,0.8-1.8,1.9-1.8c1,0,1.8,0.8,1.8,1.8s-0.8,1.8-1.8,1.8
			C432.3,1113.4,431.5,1112.6,431.5,1111.6"/>
		<g>
			<circle class="st12" cx="391.6" cy="1240.1" r="6.4"/>
			<circle class="st12" cx="378.7" cy="1240.1" r="6.4"/>
			<circle class="st12" cx="365.8" cy="1240.1" r="6.4"/>
			<circle class="st12" cx="352.9" cy="1240.1" r="6.4"/>
			<circle class="st12" cx="340" cy="1240.1" r="6.4"/>
			<circle class="st12" cx="327.2" cy="1240.1" r="6.4"/>
			<circle class="st12" cx="314.3" cy="1240.1" r="6.4"/>
			<circle class="st12" cx="301.4" cy="1240.1" r="6.4"/>
			<circle class="st12" cx="288.5" cy="1240.1" r="6.4"/>
		</g>
		<polygon class="st52" points="408.4,1231.9 408.4,1238.9 403,1244.4 276.5,1244.4 276.5,1231.9 		"/>
		<g>
			<rect x="346.3" y="1220.5" class="st2" width="20.7" height="1.1"/>
			<rect x="349.6" y="1225.1" class="st2" width="14.1" height="1.1"/>
			<rect x="349.6" y="1229.7" class="st2" width="14.1" height="1.1"/>
			<rect x="349.6" y="1234.2" class="st2" width="14.1" height="1.1"/>
			<rect x="349.6" y="1238.8" class="st2" width="14.1" height="1.1"/>
			<rect x="349.6" y="1243.4" class="st2" width="14.1" height="1.1"/>
			<rect x="362.6" y="1221" class="st2" width="1.1" height="22.5"/>
			<rect x="349.6" y="1221" class="st2" width="1.1" height="22.5"/>
		</g>
		<path class="st46" d="M375.2,1162.7c0-2,1.6-3.6,3.6-3.6s3.6,1.6,3.6,3.6s-1.6,3.6-3.6,3.6S375.2,1164.7,375.2,1162.7"/>
		<path class="st17" d="M376.9,1162.7c0-1,0.8-1.8,1.9-1.8c1,0,1.8,0.8,1.8,1.8s-0.8,1.8-1.8,1.8
			C377.7,1164.6,376.9,1163.7,376.9,1162.7"/>
	</g>
	<g>
		<rect x="354.1" y="1206.8" class="st30" width="4.1" height="42.5"/>
		<rect x="395.1" y="1206.8" class="st30" width="4.1" height="42.5"/>
		<polygon class="st33" points="407.6,1211.5 404.9,1211.5 407.6,1214.2 		"/>
		<polygon class="st33" points="345.8,1232 348.8,1232 345.8,1228.9 		"/>
		<polygon class="st33" points="345.8,1211.5 345.8,1218 359.8,1232 370.7,1232 350.2,1211.5 		"/>
		<polygon class="st33" points="407.6,1225.2 393.9,1211.5 383,1211.5 403.5,1232 407.6,1232 		"/>
		<polygon class="st33" points="361.1,1211.5 381.6,1232 392.5,1232 372.1,1211.5 		"/>
		<polygon class="st34" points="345.8,1228.9 348.8,1232 359.8,1232 345.8,1218 		"/>
		<polygon class="st34" points="350.2,1211.5 370.7,1232 381.6,1232 361.1,1211.5 		"/>
		<polygon class="st34" points="372.1,1211.5 392.5,1232 403.5,1232 383,1211.5 		"/>
		<polygon class="st34" points="407.6,1214.2 404.9,1211.5 393.9,1211.5 407.6,1225.2 		"/>
		<rect x="355.6" y="1240.2" class="st30" width="42.5" height="4.1"/>
	</g>
	<g>
		<rect x="1039.7" y="1207" class="st30" width="4.1" height="42.5"/>
		<rect x="1080.7" y="1207" class="st30" width="4.1" height="42.5"/>
		<polygon class="st33" points="1093.2,1211.6 1090.4,1211.6 1093.2,1214.4 		"/>
		<polygon class="st33" points="1031.3,1232.1 1034.4,1232.1 1031.3,1229.1 		"/>
		<polygon class="st33" points="1031.3,1211.6 1031.3,1218.1 1045.3,1232.1 1056.2,1232.1 1035.8,1211.6 		"/>
		<polygon class="st33" points="1093.2,1225.3 1079.5,1211.6 1068.6,1211.6 1089,1232.1 1093.2,1232.1 		"/>
		<polygon class="st33" points="1046.7,1211.6 1067.2,1232.1 1078.1,1232.1 1057.6,1211.6 		"/>
		<polygon class="st34" points="1031.3,1229.1 1034.4,1232.1 1045.3,1232.1 1031.3,1218.1 		"/>
		<polygon class="st34" points="1035.8,1211.6 1056.2,1232.1 1067.2,1232.1 1046.7,1211.6 		"/>
		<polygon class="st34" points="1057.6,1211.6 1078.1,1232.1 1089,1232.1 1068.6,1211.6 		"/>
		<polygon class="st34" points="1093.2,1214.4 1090.4,1211.6 1079.5,1211.6 1093.2,1225.3 		"/>
		<rect x="1041.2" y="1240.4" class="st30" width="42.5" height="4.1"/>
	</g>
	<path class="st32" d="M804.8,1250c-7.2-17.2-24.2-29.4-44-29.4c-6,0-11.7,1.1-16.9,3.1c0,0,0,0,0,0c0,0,0,0,0,0
		c-12.3,4.7-22.1,14.2-27.1,26.3h66c0,0,0,0,0,0H804.8z"/>
</g>
</svg>
